<?xml version="1.0" encoding="UTF-8"?>
<svg id="Layer_2" data-name="Layer 2" xmlns="http://www.w3.org/2000/svg" xmlns:xlink="http://www.w3.org/1999/xlink" viewBox="0 0 2974.9 4597.01">
  <defs>
    <pattern id="New_Pattern_10" data-name="New Pattern 10" x="0" y="0" width="1200" height="1200" patternTransform="translate(-3242.5 -5784.76)" patternUnits="userSpaceOnUse" viewBox="0 0 1200 1200">
      <g>
        <rect x="0" width="1200" height="1200" fill="none"/>
        <path d="M0,0V36.1C15.63,24.13,31.15,12.23,46.4,0H0Z" fill="#f8e1d9"/>
        <path d="M53.85,832.08c28.15-24.84,48.55-57.07,68.55-88.83,12.12-19.24,24.06-40.3,29.54-62.94,6.09-25.2,1.18-47.95-6.1-72.22-2.74-9.15-6.54-18.08-8.79-27.28-1.2-4.9-5.54-28.01,.95-30.98-15.7,7.18-29.81,17.95-39.66,33.85C73.86,623.17,44.4,653.45,0,669.41v77.13c7-5.26,14.55-14.18,23.02-24.21,13.66-16.17,29.14-34.49,49.62-46.36l41.15-23.85-33.94,33.32c-8.28,8.12-14.39,20.39-20.87,33.37-9.31,18.68-19.87,39.84-40.03,56.47-6.73,5.55-13.15,9.01-18.81,12.06-.05,.03-.1,.05-.15,.08v83.57c4.11-2.77,8.23-5.53,12.34-8.3,14.28-9.6,28.61-19.24,41.51-30.63Z" fill="#f8e1d9"/>
        <path d="M1154.29,433.68c-8.72,10.46-15.52,20.21-27.33,27.29-12.97,7.78-25.93,15.57-38.9,23.35-7.16,4.3-14.24,7.85-19.81,14.01-5.13,5.67-9.97,11.64-15.59,16.84-2.11,1.95-16.4,14.46-19.39,12.11,9.77,7.68,21.12,2.32,30.66-2.75,9.96-5.3,20.05-9.13,31.05-11.79,22.06-5.33,45.7-7.14,66.02-17.21,13.61-6.75,26.19-15.28,39.01-23.4v-84.25c-17.17,12.99-32.32,28.95-45.71,45.82Z" fill="#f8e1d9"/>
        <path d="M701.42,0h-79.53c-2.25,4.07-4.48,8.3-6.66,12.77,28.67-1.59,58.69-4.23,86.2-12.77Z" fill="#f8e1d9"/>
        <path d="M1149.98,1110.6c-12.77,6.76-26.54,11.17-39.81,12.76-5.79,.69-12.05,1.13-18.11,1.56-10.22,.72-20.79,1.46-29.73,3.42-12.5,2.75-24.51,9.05-36.12,15.13l-63.23,33.14c-3.63,1.9-7.38,3.73-11.02,5.5-7.03,3.43-14.3,6.97-20.61,11.03-3.07,1.98-6.02,4.34-9.05,6.86h277.7v-142.45c-11.03,19.83-25.57,40.12-50.02,53.05Z" fill="#f8e1d9"/>
        <path d="M848.65,1178.34c-3.15,5.15-7.95,12.98-14.19,21.66h-81.79c20.89-18.62,35.73-43.94,33.58-71.27-18.88,39.98-49.81,60.41-84.82,71.27h-79.53c25.53-46.09,55.01-68.27,85.8-112.38,24.32-34.84,19.5-28.5,40-63.56-38,24.91-83.57,74.63-159.85,155.14-6.14,6.48-11.73,13.45-16.89,20.8h-193.42c29.17-20.95,67.69-30.06,87.91-60.26,7.36-10.99,16.21-21.64,25.06-31.38,19.21-21.12,43.44-28.38,69.46-39.1,25.31-10.43,50.36-22.96,74.85-35.31,31.52-15.9,69.32-55.6,94.96-80.53,29.82-28.99,39.72-23.8,73.26-37.78,22.06-9.2,44.87-29.32,61.94-46.63,15.06-15.26,22.07-24,31.42-43.57,9.35-19.57,22.26-41.69,44.25-53.01-45.81,8.74-74.02,54.55-113.3,80.45-32.37,21.35-73.05,25.94-105.15,47.71-16.95,11.49-30.71,27.25-45.58,41.5-23.65,22.68-50.44,41.82-79.3,56.66-42.21,21.7-90.01,35.09-123.6,69.35-19.69,20.08-33.36,46.37-55.4,63.63-18.1,14.16-40.54,21.17-59.26,34.44-11.99,8.51-22.2,20.36-31.31,33.82H130.71c8.61-7.1,17.07-14.4,25.66-21.36,12.82-10.38,19.4-27.16,28.47-40.81,12.25-18.43,18.32-48.28,38.95-56.3,28.02-10.88,35-37.32,48.96-42.09,21.69-7.41,29.95,6.13,50.14-4.72,30.49-16.38,69.06-4.99,101.76-16.34,15.59-5.41,29.32-16.05,38.44-29.8,11.16-16.82,23.9-48.36,42.34-56.87-33.29-3.31-49.71,30.54-69.74,42.53-16.7,9.99-42.86,26.23-82.92,10.29,39.44-13.21,47-66.18,88.03-81.77,15.15-5.76,34.76-13.45,49.41-20.37,25.08-11.84,43.91-23.12,62.43-43.77,18.52-20.65,24.92-42.74,66.28-39.68-35.47-14.3-54.32-5.86-97.26,26.19-15.15,11.31-31.39,17.74-48.52,25.74-22.79,10.64-48.66,13.74-70.89,25.5-41,21.69-62.58,68.6-100.74,94.98-34.29,23.7-80.66,29.94-107.79,61.58-21.05,24.55-26.25,60.04-48.46,83.55-15.62,16.53-35.29,28.29-51.98,43.6-15.21,13.96-30.89,27.11-46.87,39.92H0v-142.45c2.14-3.85,4.16-7.69,6.08-11.45,4.68-9.14,9-18.55,13.17-27.65,1.79-3.9,3.58-7.8,5.39-11.68,.81-1.72,1.52-3.45,2.21-5.12,3.48-8.42,6.49-15.69,20.99-21.48l41.09-16.39H44.7c-18.74,0-32.44,2.92-44.7,8.27v-72.65c31.54-12.01,61.36-27.33,86.53-49.63,33.11-29.34,60.49-63.55,80.6-103.1,1.51-2.96,3-5.93,4.48-8.89,18.26-36.45,31.11-82.6,19.61-121.71-5.46-18.56-13.12-40.28-15.61-59.47-4.18-32.23,.71-66.04,16.72-76.89-50.67,3.16-110.26,50.88-140.83,94.03-11.83,16.7-26.1,29.68-42.5,41.93-2.94,2.2-5.95,4.16-9,5.96v-104.12c8.17-8.21,15.86-17.27,22.69-24.5,7.21-7.63,14.37-15.33,22.57-22.12,17.92-14.84,41.38-24.25,65.66-25.98-35.28-8.69-70.08,2.98-99.07,19.96-4,2.34-7.94,4.79-11.85,7.27v-84.25c18.07-13.68,38.37-24.08,61.21-28.77-17.42-1.57-33.7-4.15-50.92-.26-3.54,.8-6.95,1.79-10.29,2.91V95.19c8.68-9.3,17.44-18.52,27.11-26.68,18.63-15.72,40.66-27.93,62.09-39.35,14.83-7.91,28.34-18.29,41.5-29.15h197.06c-30.91,45.71-49.04,110.03-80.49,125.5,55.95-6.23,97.87-101.8,129.3-124.82,.31-.23,.64-.45,.95-.68h193.42c-20.89,29.77-34.43,65.64-46.49,99.75-6.55,18.52-12.11,34.9-26.46,49.25,67-18,89.02-73.97,133.61-92.94,33.15-14.1,68.96-22.31,99.96-40.65,7.4-4.38,14.54-9.57,21.09-15.41h81.79c-13.62,18.92-34.14,41.88-59.62,49.87l-50.92,15.98,53.37,.63c.82,0,1.63,.01,2.44,.01,62.78,0,96.55-28.87,116.82-46.2,4.53-3.87,8.44-7.22,11.58-9.27,4.45-2.91,8.43-6.23,12.27-9.44,.64-.54,1.27-1.06,1.91-1.58h277.7V36.1c-1.47,1.13-2.95,2.26-4.43,3.39-20.53,15.73-38.26,32.1-54.21,52.76-10.87,14.07-25.28,23.48-37.68,36.11-11.77,11.99-28.64,20.99-43.78,28-8.08,3.74-16.44,6.89-25.02,9.26-6.15,1.7-14.15,3.97-23.84,4.53,34.16,8.19,67.96,6.07,100.28-8.02,19.12-8.33,36.83-19.48,53.11-32.28,12.97-10.19,24.2-22.49,35.57-34.67V361.75c-39.28,13.25-65.27,47.37-103.13,63-14.85,6.13-30.13,11.49-44.4,18.92-22.53,11.73-35.77,32.8-53.21,50.41-13.27,13.4-30.59,20.42-47.05,28.89-20.51,10.55-39.02,24.39-57.66,37.85-17.74,12.81-37.24,22.69-55.47,34.73-13.84,9.15-22.71,19.51-33.46,32.14-13.52,15.89-30.09,32.45-50.6,35.24,12.24,3.64,21.43,4.63,32.75,2.32,11.33-2.32,21.44-9.05,30.96-15.61,10.86-7.49,18.29-17.68,30.31-24.05,11.86-6.28,24.58-7.87,37.37-11.26,17.44-4.62,33.87-13.21,50.38-20.37,21.4-9.27,44.13-18.1,67.42-22.73,24.95-4.96,49.73-1.43,74.74-4.48,35.83-4.37,71.89-14.12,102.51-33.66,6.35-4.05,12.57-9.6,18.53-15.6v104.12c-23.09,13.54-49.24,16.53-75.75,24.73-37.91,11.73-65.48,43.91-89.02,75.86-23.54,31.94-46.45,66.29-80.81,86.14,33.99,4.5,66.42-15.73,91.33-39.29,24.91-23.56,46.26-51.61,75.65-69.27,23.55-14.15,50.73-20.67,76.68-29.67,.65-.23,1.28-.46,1.93-.7v77.13c-1.76,1.32-3.48,2.42-5.17,3.23-3.1,1.49-6.32,2.96-9.44,4.37-13.16,5.97-26.76,12.14-37.83,23.44-21.62,22.05-47.17,46.82-76.83,61.69-8.23,4.12-17.03,7.2-25.53,10.18-15.75,5.51-32.05,11.21-45.96,23.77-6.09,5.5-11.45,11.67-16.63,17.64-6.42,7.4-12.48,14.38-19.76,20.11-7.65,6.01-16.39,10.22-25.65,14.68-8.76,4.22-17.83,8.58-26.03,14.65-20.8,15.39-37.38,41.45-52.02,64.44-10.02,15.74-19.48,30.6-28.87,39.99l-13.58,13.58,18.9-3.44c22.37-4.07,33.23-13.98,46.98-26.53,7.33-6.69,15.64-14.27,27.3-22.4l1.07-.74c21.17-14.76,35.16-24.51,58.08-34.22,14.92-6.32,26.77-17.07,38.23-27.46,7.2-6.53,14-12.69,21.5-17.85,13.01-8.94,28.49-14.66,43.45-20.2,22.74-8.41,46.25-17.1,63.01-37.28l1.59-1.91c14.36-17.27,30.63-36.85,40.64-57.73,5.78-12.04,12.83-15.89,22.56-21.13v83.57c-26.33,17.7-52.66,35.41-78.98,53.11,26.41-7.34,53.27-14.93,78.98-24.72v72.65c-13.54,5.91-25.33,14.79-40.21,26.01-3.61,2.72-6.93,5.49-10.44,8.42-11.34,9.46-24.18,20.18-50.62,31.16-11.93,4.95-23.26,7.13-35.27,9.44-10.7,2.06-21.77,4.19-33.67,8.4-5.91,2.09-12.2,4.01-18.86,6.03-17.66,5.37-35.93,10.93-50.04,20.77-6.23,4.34-11.88,9.13-17.35,13.76-6.9,5.84-13.41,11.35-20.84,15.9-5.19,3.18-10.85,5.9-16.85,8.78-10.2,4.91-20.75,9.98-29.33,17.68-8.95,8.03-13.82,16.46-18.53,24.61-1.86,3.22-3.78,6.55-5.97,9.89-.91,1.4-2,3.17-3.38,5.42ZM979.56,239.11c-34.56,.51-68.7,5.42-102.27,15.42-36.67,10.93-70.86,28.54-103.93,47.5-30.03,17.22-52.55,41.42-81.27,60.77-25.04,16.87-50.95,32.39-76.24,48.88-22.13,14.43-41.13,31.16-69.05,32.22,29.88,9.91,71.52,1.22,98.42-9.11,64.82-24.92,101.48-50.7,162.59-85.35,14.18-8.03,26.39-19.14,41.46-25.59,14.47-6.18,35.36-9.82,48.72-17.85,58.26-35,74.5-1.39,178.02-54.96,25.59-13.24,85.98-27.04,97.4-59.45-12.26,10.92-25.19,17.01-37.6,18.78-15.63,2.24-30.98,.97-46.53,4.12-35.3,7.15-73.59,24.09-109.73,24.62ZM116.43,305.35c18.48-.68,60.62-13.44,76.22-21.45,95.64-49.08,180.53-176.22,247.85-183.9-30.05-14.02-72.53,8.61-98.74,22.1-34.55,17.79-62.31,42.71-93.26,66.04-30.88,23.3-48.01,43.1-81.17,63.61-10.94,6.76-34.31,19.81-49.86,22.55,31.03-18.3,43.03-57.3,48.19-103.97,4.48-40.44,29.67-92.02,58.09-112.34-49.09,10.32-76.89,60.71-101.46,116.93-9.68,22.15-18.19,40.73-31.3,61.32-13.13,20.63-34.16,48.48-60.89,48.94,26.65,18.46,52.4,21.4,86.32,20.16Zm121.79,50.13c4.27-3.07,8.58-6.26,12.76-9.34,23.92-17.67,48.66-35.94,77.14-41.58,9.39-1.86,18.91-2.31,28.98-2.8,8.32-.4,16.91-.81,25.42-2.09,20.92-3.14,40.5-11.34,59.43-19.27,5.82-2.44,11.83-4.96,17.75-7.27,29.48-11.51,68.69-23.34,105.04-22.88-18.09,6.07-40.56,16.18-67.17,32.87-4.9,3.08-9.87,6.28-14.68,9.38-31.93,20.59-64.95,41.88-113.57,49.18-17.47,2.62-35.95,8.4-52.04,16.26-19.2,9.39-33.75,21.24-42.08,34.26-6.91,10.81-12.52,22.4-17.95,33.61-6.87,14.19-13.97,28.86-23.67,41.73-26.33,34.93-26.76,70.98-1.26,104.27l19.01,24.81-8.47-30.09c-9.22-32.74,11.37-57.67,15.59-62.34,13.83-15.3,23.39-30.28,33.5-46.14,3.18-4.98,6.46-10.13,9.94-15.39,9.21-13.9,19.37-26.01,30.21-35.98,15.47-14.23,41.58-18.52,66.83-22.66,10.07-1.65,19.58-3.21,28.27-5.39,35.21-8.8,63.08-24.4,90.04-39.48,25.26-14.13,49.11-27.48,78.46-35.57,57.98-15.98,124.47-38,178.07-80.14,12.74-10.02,24.72-21.15,36.31-31.92,11.5-10.69,23.4-21.74,35.85-31.51,29.27-22.95,63.7-40.28,99.57-50.12,19.56-5.36,40.08-8.68,59.94-11.9,15.44-2.5,31.4-5.08,46.99-8.62,35.16-7.99,59.65-26.25,84.53-63.05l15.99-23.65-24.16,15.22c-.55,.35-55.86,34.6-133.1,34.07-91.03-.66-131.57,24.48-192.87,62.53-21.36,13.26-45.57,28.28-75.32,44.18-36.09,19.28-90.96,39.78-126.11,39.2-7.44-.12-15.21-.42-23.44-.74-33.78-1.32-72.06-2.81-102.18,8.3-13.79,5.08-25.91,13.05-37.63,20.75-9.73,6.4-18.92,12.44-29.03,17-26.56,11.99-53.67,15.56-82.38,19.34l-2.4,.32c-23.64,3.12-45.96,13.44-72.38,33.45-3.8,2.88-8.22,6.3-13.33,10.27-31.48,24.42-90.08,69.86-124.65,77.62l-19.89,4.46,19.13,7.02c20.87,7.66,59.49,6.9,124.99-40.22Zm-79.1,526.68c53.72-38.3,105.65-81.9,135.09-143.03,18.89-39.23,18.75-86.45,40-124,15.14-26.75,39.05-46.95,64.33-63.77,17.03-11.33,34.68-22.22,53.02-31.54,9.82-4.99,19.85-9.54,30.08-13.46,21.99-8.43,45.21-12.87,65.17-26.19-12.4,1.09-19.5,3.54-27.93,5.41-11.93,2.66-28.6,6.51-40.31,10-24.5,7.29-48.47,16.36-71.66,27.13-42.25,19.63-84.24,44.79-107.18,87.03-18.82,34.64-21.75,75.59-35.57,112.51-12.92,34.52-35.03,64.71-56.86,94.41-16.06,21.83-32.11,43.67-48.17,65.5Zm581.03-294.03c15.56-10.66,31.23-24.52,46.38-37.91,12.14-10.73,23.6-20.86,34.84-29.33,2.68-2.02,5.33-4.02,7.96-6.01,36.46-27.57,67.95-51.37,113.27-66.8,42.47-14.46,77.16-33.07,100.3-53.81,27.63-24.76,39.3-52.15,34.69-81.38l-5.36-34.01-11.08,32.6c-6.3,18.52-24.24,34.8-54.85,49.77-28.04,13.71-61.67,24.04-94.19,34.02-27.15,8.33-52.79,16.21-71.55,25.17-28.91,13.82-53.8,32.23-77.86,50.05-19.58,14.49-39.82,29.47-61.85,41.6-30.1,16.57-65.09,28.75-98.92,40.53-51.43,17.9-104.61,36.41-142.33,70.96-21.12,19.35-35.4,42.04-49.21,63.99-13.6,21.62-26.45,42.04-45.4,59.68-3.33,3.1-6.97,6.21-10.49,9.22-7.1,6.07-14.44,12.35-20.55,19.55-4.91,5.78-8.77,11.84-12.5,17.7-3.59,5.64-6.98,10.97-11.16,15.87-10.14,11.91-24.72,21.27-40.15,31.18-16.47,10.58-33.5,21.51-45.32,36.22-8.13,10.12-13.01,21.03-17.73,31.59-1.89,4.22-3.67,8.2-5.65,12.16-9.99,19.92-51.7,54.28-82.64,68.1l-43.85,19.58,47.91-3.34c36.84-2.57,93.32-41.82,111.79-62.33,4.37-4.86,8.62-9.87,12.73-14.71,12.76-15.04,24.81-29.25,41.25-40.47,9.41-6.43,19.97-11.67,31.14-17.22,14.11-7.01,28.69-14.25,40.83-24.14,9.35-7.62,16.63-16.3,23.67-24.69,6.36-7.58,12.37-14.75,19.72-21.05,6.09-5.23,13.07-9.84,20.45-14.71,9.03-5.96,18.36-12.13,26.2-19.68,9.63-9.28,16.11-19.75,22.37-29.86,3.72-6.01,7.23-11.69,11.35-17.11,13.87-18.23,39.79-42.8,117.75-71.19,8.22-2.99,16.68-5.97,24.87-8.84,39.23-13.79,79.79-28.04,113.16-50.92Zm217.2,108.98c32.5-5.7,59.32-28.35,68.33-57.7l2.73-8.9-7.41,5.62c-13.66,10.37-28.35,18.07-43.64,22.89-16.6,5.23-34.04,7.11-50.9,8.93-8.26,.89-16.8,1.81-25.22,3.11-13.65,2.11-27.83,6.06-43.35,12.07-10.18,3.94-17.83,9.95-25.93,16.32-1.98,1.55-4.02,3.16-6.1,4.73-22.74,17.19-46.91,33.04-71.85,47.1-1.4,.79-2.78,1.56-4.15,2.33-13.26,7.41-25.78,14.41-36.28,27.31-11.17,13.72-17.79,29.29-19.16,45.03l-1.11,12.74,6.66-10.92c10.45-17.14,35.58-22.26,55.78-26.38,1.84-.37,3.64-.74,5.38-1.11,27.35-5.75,46.48-13.59,58.5-23.95,7.31-6.3,14.34-13.05,21.14-19.58,8.92-8.56,18.14-17.41,27.98-25.24,25.28-20.09,53.71-28.29,88.62-34.41Z" fill="#f8e1d9"/>
        <path d="M877.3,254.53c-36.67,10.93-70.86,28.54-103.93,47.5-30.03,17.22-52.55,41.42-81.27,60.77-25.04,16.87-50.95,32.39-76.24,48.88-22.13,14.43-41.13,31.16-69.05,32.22,29.88,9.91,71.52,1.22,98.42-9.11,64.82-24.92,101.48-50.7,162.59-85.35,14.18-8.03,26.39-19.14,41.46-25.59,14.47-6.18,35.36-9.82,48.72-17.85,58.26-35,74.5-1.39,178.02-54.96,25.59-13.24,85.98-27.04,97.4-59.45-12.26,10.92-25.19,17.01-37.6,18.78-15.63,2.24-30.98,.97-46.53,4.12-35.3,7.15-73.59,24.09-109.73,24.62-34.56,.51-68.7,5.42-102.27,15.42Z" fill="#1d1d1d"/>
        <path d="M1025.69,639.42l2.73-8.9-7.41,5.62c-13.66,10.37-28.35,18.07-43.64,22.89-16.6,5.23-34.04,7.11-50.9,8.93-8.26,.89-16.8,1.81-25.22,3.11-13.65,2.11-27.83,6.06-43.35,12.07-10.18,3.94-17.83,9.95-25.93,16.32-1.98,1.55-4.02,3.16-6.1,4.73-22.74,17.19-46.91,33.04-71.85,47.1-1.4,.79-2.78,1.56-4.15,2.33-13.26,7.41-25.78,14.41-36.28,27.31-11.17,13.72-17.79,29.29-19.16,45.03l-1.11,12.74,6.66-10.92c10.45-17.14,35.58-22.26,55.78-26.38,1.84-.37,3.64-.74,5.38-1.11,27.35-5.75,46.48-13.59,58.5-23.95,7.31-6.3,14.34-13.05,21.14-19.58,8.92-8.56,18.14-17.41,27.98-25.24,25.28-20.09,53.71-28.29,88.62-34.41,32.5-5.7,59.32-28.35,68.33-57.7Z" fill="#1d1d1d"/>
        <path d="M250.98,346.14c23.92-17.67,48.66-35.94,77.14-41.58,9.39-1.86,18.91-2.31,28.98-2.8,8.32-.4,16.91-.81,25.42-2.09,20.92-3.14,40.5-11.34,59.43-19.27,5.82-2.44,11.83-4.96,17.75-7.27,29.48-11.51,68.69-23.34,105.04-22.88-18.09,6.07-40.56,16.18-67.17,32.87-4.9,3.08-9.87,6.28-14.68,9.38-31.93,20.59-64.95,41.88-113.57,49.18-17.47,2.62-35.95,8.4-52.04,16.26-19.2,9.39-33.75,21.24-42.08,34.26-6.91,10.81-12.52,22.4-17.95,33.61-6.87,14.19-13.97,28.86-23.67,41.73-26.33,34.93-26.76,70.98-1.26,104.27l19.01,24.81-8.47-30.09c-9.22-32.74,11.37-57.67,15.59-62.34,13.83-15.3,23.39-30.28,33.5-46.14,3.18-4.98,6.46-10.13,9.94-15.39,9.21-13.9,19.37-26.01,30.21-35.98,15.47-14.23,41.58-18.52,66.83-22.66,10.07-1.65,19.58-3.21,28.27-5.39,35.21-8.8,63.08-24.4,90.04-39.48,25.26-14.13,49.11-27.48,78.46-35.57,57.98-15.98,124.47-38,178.07-80.14,12.74-10.02,24.72-21.15,36.31-31.92,11.5-10.69,23.4-21.74,35.85-31.51,29.27-22.95,63.7-40.28,99.57-50.12,19.56-5.36,40.08-8.68,59.94-11.9,15.44-2.5,31.4-5.08,46.99-8.62,35.16-7.99,59.65-26.25,84.53-63.05l15.99-23.65-24.16,15.22c-.55,.35-55.86,34.6-133.1,34.07-91.03-.66-131.57,24.48-192.87,62.53-21.36,13.26-45.57,28.28-75.32,44.18-36.09,19.28-90.96,39.78-126.11,39.2-7.44-.12-15.21-.42-23.44-.74-33.78-1.32-72.06-2.81-102.18,8.3-13.79,5.08-25.91,13.05-37.63,20.75-9.73,6.4-18.92,12.44-29.03,17-26.56,11.99-53.67,15.56-82.38,19.34l-2.4,.32c-23.64,3.12-45.96,13.44-72.38,33.45-3.8,2.88-8.22,6.3-13.33,10.27-31.48,24.42-90.08,69.86-124.65,77.62l-19.89,4.46,19.13,7.02c20.87,7.66,59.49,6.9,124.99-40.22,4.27-3.07,8.58-6.26,12.76-9.34Z" fill="#1d1d1d"/>
        <path d="M1185.39,754.14c-13.16,5.97-26.76,12.14-37.83,23.44-21.62,22.05-47.17,46.82-76.83,61.69-8.23,4.12-17.03,7.2-25.53,10.18-15.75,5.51-32.05,11.21-45.96,23.77-6.09,5.5-11.45,11.67-16.63,17.64-6.42,7.4-12.48,14.38-19.76,20.11-7.65,6.01-16.39,10.22-25.65,14.68-8.76,4.22-17.83,8.58-26.03,14.65-20.8,15.39-37.38,41.45-52.02,64.44-10.02,15.74-19.48,30.6-28.87,39.99l-13.58,13.58,18.9-3.44c22.37-4.07,33.23-13.98,46.98-26.53,7.33-6.69,15.64-14.27,27.3-22.4l1.07-.74c21.17-14.76,35.16-24.51,58.08-34.22,14.92-6.32,26.77-17.07,38.23-27.46,7.2-6.53,14-12.69,21.5-17.85,13.01-8.94,28.49-14.66,43.45-20.2,22.74-8.41,46.25-17.1,63.01-37.28l1.59-1.91c14.36-17.27,30.63-36.85,40.64-57.73,5.78-12.04,12.83-15.89,22.56-21.13v-40.89c-1.76,1.32-3.48,2.42-5.17,3.23-3.1,1.49-6.32,2.96-9.44,4.37Z" fill="#1d1d1d"/>
        <path d="M18.96,775.29c20.16-16.63,30.71-37.79,40.03-56.47,6.48-12.98,12.59-25.25,20.87-33.37l33.94-33.32-41.15,23.85c-20.48,11.87-35.96,30.19-49.62,46.36C14.55,732.36,7,741.28,0,746.54v40.89c.05-.03,.1-.05,.15-.08,5.66-3.05,12.08-6.5,18.81-12.06Z" fill="#1d1d1d"/>
        <path d="M1035.23,722.21c-23.54,31.94-46.45,66.29-80.81,86.14,33.99,4.5,66.42-15.73,91.33-39.29,24.91-23.56,46.26-51.61,75.65-69.27,23.55-14.15,50.73-20.67,76.68-29.67,.65-.23,1.28-.46,1.93-.7v-47.79c-23.09,13.54-49.24,16.53-75.75,24.73-37.91,11.73-65.48,43.91-89.02,75.86Z" fill="#1d1d1d"/>
        <path d="M1200,899.39v-28.39c-26.33,17.7-52.66,35.41-78.98,53.11,26.41-7.34,53.27-14.93,78.98-24.72Z" fill="#1d1d1d"/>
        <path d="M167.13,746.66c1.51-2.96,3-5.93,4.48-8.89,18.26-36.45,31.11-82.6,19.61-121.71-5.46-18.56-13.12-40.28-15.61-59.47-4.18-32.23,.71-66.04,16.72-76.89-50.67,3.16-110.26,50.88-140.83,94.03-11.83,16.7-26.1,29.68-42.5,41.93-2.94,2.2-5.95,4.16-9,5.96v47.79c44.4-15.97,73.86-46.25,98.33-85.75,9.85-15.9,23.96-26.67,39.66-33.85-6.49,2.97-2.15,26.08-.95,30.98,2.25,9.2,6.05,18.14,8.79,27.28,7.28,24.27,12.19,47.02,6.1,72.22-5.48,22.65-17.42,43.7-29.54,62.94-20,31.76-40.4,64-68.55,88.83-12.9,11.39-27.23,21.02-41.51,30.63-4.11,2.77-8.23,5.53-12.34,8.3v28.39c31.54-12.01,61.36-27.33,86.53-49.63,33.11-29.34,60.49-63.55,80.6-103.1Z" fill="#1d1d1d"/>
        <path d="M294.21,739.12c18.89-39.23,18.75-86.45,40-124,15.14-26.75,39.05-46.95,64.33-63.77,17.03-11.33,34.68-22.22,53.02-31.54,9.82-4.99,19.85-9.54,30.08-13.46,21.99-8.43,45.21-12.87,65.17-26.19-12.4,1.09-19.5,3.54-27.93,5.41-11.93,2.66-28.6,6.51-40.31,10-24.5,7.29-48.47,16.36-71.66,27.13-42.25,19.63-84.24,44.79-107.18,87.03-18.82,34.64-21.75,75.59-35.57,112.51-12.92,34.52-35.03,64.71-56.86,94.41-16.06,21.83-32.11,43.67-48.17,65.5,53.72-38.3,105.65-81.9,135.09-143.03Z" fill="#1d1d1d"/>
        <path d="M1052.47,443.67c-22.53,11.73-35.77,32.8-53.21,50.41-13.27,13.4-30.59,20.42-47.05,28.89-20.51,10.55-39.02,24.39-57.66,37.85-17.74,12.81-37.24,22.69-55.47,34.73-13.84,9.15-22.71,19.51-33.46,32.14-13.52,15.89-30.09,32.45-50.6,35.24,12.24,3.64,21.43,4.63,32.75,2.32,11.33-2.32,21.44-9.05,30.96-15.61,10.86-7.49,18.29-17.68,30.31-24.05,11.86-6.28,24.58-7.87,37.37-11.26,17.44-4.62,33.87-13.21,50.38-20.37,21.4-9.27,44.13-18.1,67.42-22.73,24.95-4.96,49.73-1.43,74.74-4.48,35.83-4.37,71.89-14.12,102.51-33.66,6.35-4.05,12.57-9.6,18.53-15.6v-45.38c-12.82,8.12-25.39,16.65-39.01,23.4-20.32,10.07-43.96,11.88-66.02,17.21-11,2.66-21.09,6.49-31.05,11.79-9.54,5.07-20.89,10.44-30.66,2.75,2.99,2.35,17.28-10.16,19.39-12.11,5.62-5.2,10.46-11.17,15.59-16.84,5.57-6.16,12.65-9.71,19.81-14.01,12.97-7.78,25.93-15.57,38.9-23.35,11.81-7.08,18.61-16.83,27.33-27.29,13.39-16.87,28.55-32.82,45.71-45.82v-26.11c-39.28,13.25-65.27,47.37-103.13,63-14.85,6.13-30.13,11.49-44.4,18.92Z" fill="#1d1d1d"/>
        <path d="M465.44,1139.74c7.36-10.99,16.21-21.64,25.06-31.38,19.21-21.12,43.44-28.38,69.46-39.1,25.31-10.43,50.36-22.96,74.85-35.31,31.52-15.9,69.32-55.6,94.96-80.53,29.82-28.99,39.72-23.8,73.26-37.78,22.06-9.2,44.87-29.32,61.94-46.63,15.06-15.26,22.07-24,31.42-43.57,9.35-19.57,22.26-41.69,44.25-53.01-45.81,8.74-74.02,54.55-113.3,80.45-32.37,21.35-73.05,25.94-105.15,47.71-16.95,11.49-30.71,27.25-45.58,41.5-23.65,22.68-50.44,41.82-79.3,56.66-42.21,21.7-90.01,35.09-123.6,69.35-19.69,20.08-33.36,46.37-55.4,63.63-18.1,14.16-40.54,21.17-59.26,34.44-11.99,8.51-22.2,20.36-31.31,33.82h49.76c29.17-20.95,67.69-30.06,87.91-60.26Z" fill="#1d1d1d"/>
        <path d="M247.27,125.5c55.95-6.23,97.87-101.8,129.3-124.82,.31-.23,.64-.45,.95-.68h-49.76c-30.91,45.71-49.04,110.03-80.49,125.5Z" fill="#1d1d1d"/>
        <path d="M786.54,550.22c12.14-10.73,23.6-20.86,34.84-29.33,2.68-2.02,5.33-4.02,7.96-6.01,36.46-27.57,67.95-51.37,113.27-66.8,42.47-14.46,77.16-33.07,100.3-53.81,27.63-24.76,39.3-52.15,34.69-81.38l-5.36-34.01-11.08,32.6c-6.3,18.52-24.24,34.8-54.85,49.77-28.04,13.71-61.67,24.04-94.19,34.02-27.15,8.33-52.79,16.21-71.55,25.17-28.91,13.82-53.8,32.23-77.86,50.05-19.58,14.49-39.82,29.47-61.85,41.6-30.1,16.57-65.09,28.75-98.92,40.53-51.43,17.9-104.61,36.41-142.33,70.96-21.12,19.35-35.4,42.04-49.21,63.99-13.6,21.62-26.45,42.04-45.4,59.68-3.33,3.1-6.97,6.21-10.49,9.22-7.1,6.07-14.44,12.35-20.55,19.55-4.91,5.78-8.77,11.84-12.5,17.7-3.59,5.64-6.98,10.97-11.16,15.87-10.14,11.91-24.72,21.27-40.15,31.18-16.47,10.58-33.5,21.51-45.32,36.22-8.13,10.12-13.01,21.03-17.73,31.59-1.89,4.22-3.67,8.2-5.65,12.16-9.99,19.92-51.7,54.28-82.64,68.1l-43.85,19.58,47.91-3.34c36.84-2.57,93.32-41.82,111.79-62.33,4.37-4.86,8.62-9.87,12.73-14.71,12.76-15.04,24.81-29.25,41.25-40.47,9.41-6.43,19.97-11.67,31.14-17.22,14.11-7.01,28.69-14.25,40.83-24.14,9.35-7.62,16.63-16.3,23.67-24.69,6.36-7.58,12.37-14.75,19.72-21.05,6.09-5.23,13.07-9.84,20.45-14.71,9.03-5.96,18.36-12.13,26.2-19.68,9.63-9.28,16.11-19.75,22.37-29.86,3.72-6.01,7.23-11.69,11.35-17.11,13.87-18.23,39.79-42.8,117.75-71.19,8.22-2.99,16.68-5.97,24.87-8.84,39.23-13.79,79.79-28.04,113.16-50.92,15.56-10.66,31.23-24.52,46.38-37.91Z" fill="#1d1d1d"/>
        <path d="M951.96,1182.11c3.63-1.77,7.39-3.6,11.02-5.5l63.23-33.14c11.61-6.08,23.62-12.38,36.12-15.13,8.93-1.97,19.5-2.71,29.73-3.42,6.05-.42,12.32-.86,18.11-1.56,13.27-1.59,27.04-6,39.81-12.76,24.45-12.93,38.99-33.23,50.02-53.05v-85.5c-13.54,5.91-25.33,14.79-40.21,26.01-3.61,2.72-6.93,5.49-10.44,8.42-11.34,9.46-24.18,20.18-50.62,31.16-11.93,4.95-23.26,7.13-35.27,9.44-10.7,2.06-21.77,4.19-33.67,8.4-5.91,2.09-12.2,4.01-18.86,6.03-17.66,5.37-35.93,10.93-50.04,20.77-6.23,4.34-11.88,9.13-17.35,13.76-6.9,5.84-13.41,11.35-20.84,15.9-5.19,3.18-10.85,5.9-16.85,8.78-10.2,4.91-20.75,9.98-29.33,17.68-8.95,8.03-13.82,16.46-18.53,24.61-1.86,3.22-3.78,6.55-5.97,9.89-.91,1.4-2,3.17-3.38,5.42-3.15,5.15-7.95,12.98-14.19,21.66h87.85c3.03-2.51,5.98-4.88,9.05-6.86,6.3-4.06,13.58-7.61,20.61-11.03Z" fill="#1d1d1d"/>
        <path d="M19.25,1018.45c1.79-3.9,3.58-7.8,5.39-11.68,.81-1.72,1.52-3.45,2.21-5.12,3.48-8.42,6.49-15.69,20.99-21.48l41.09-16.39H44.7c-18.74,0-32.44,2.92-44.7,8.27v85.5c2.14-3.85,4.16-7.69,6.08-11.45,4.68-9.14,9-18.55,13.17-27.65Z" fill="#1d1d1d"/>
        <path d="M774.84,49.87l-50.92,15.98,53.37,.63c.82,0,1.63,.01,2.44,.01,62.78,0,96.55-28.87,116.82-46.2,4.53-3.87,8.44-7.22,11.58-9.27,4.45-2.91,8.43-6.23,12.27-9.44,.64-.54,1.27-1.06,1.91-1.58h-87.85c-13.62,18.92-34.14,41.88-59.62,49.87Z" fill="#1d1d1d"/>
        <path d="M10.29,358.84c-3.54,.8-6.95,1.79-10.29,2.91v26.11c18.07-13.68,38.37-24.08,61.21-28.77-17.42-1.57-33.7-4.15-50.92-.26Z" fill="#1d1d1d"/>
        <path d="M22.69,492.99c7.21-7.63,14.37-15.33,22.57-22.12,17.92-14.84,41.38-24.25,65.66-25.98-35.28-8.69-70.08,2.98-99.07,19.96-4,2.34-7.94,4.79-11.85,7.27v45.38c8.17-8.21,15.86-17.27,22.69-24.5Z" fill="#1d1d1d"/>
        <path d="M1141.36,92.25c-10.87,14.07-25.28,23.48-37.68,36.11-11.77,11.99-28.64,20.99-43.78,28-8.08,3.74-16.44,6.89-25.02,9.26-6.15,1.7-14.15,3.97-23.84,4.53,34.16,8.19,67.96,6.07,100.28-8.02,19.12-8.33,36.83-19.48,53.11-32.28,12.97-10.19,24.2-22.49,35.57-34.67V36.1c-1.47,1.13-2.95,2.26-4.43,3.39-20.53,15.73-38.26,32.1-54.21,52.76Z" fill="#1d1d1d"/>
        <path d="M27.11,68.5c18.63-15.72,40.66-27.93,62.09-39.35,14.83-7.91,28.34-18.29,41.5-29.15H46.4C31.15,12.23,15.63,24.13,0,36.1v59.08c8.68-9.3,17.44-18.52,27.11-26.68Z" fill="#1d1d1d"/>
        <path d="M184.83,1137.83c12.25-18.43,18.32-48.28,38.95-56.3,28.02-10.88,35-37.32,48.96-42.09,21.69-7.41,29.95,6.13,50.14-4.72,30.49-16.38,69.06-4.99,101.76-16.34,15.59-5.41,29.32-16.05,38.44-29.8,11.16-16.82,23.9-48.36,42.34-56.87-33.29-3.31-49.71,30.54-69.74,42.53-16.7,9.99-42.86,26.23-82.92,10.29,39.44-13.21,47-66.18,88.03-81.77,15.15-5.76,34.76-13.45,49.41-20.37,25.08-11.84,43.91-23.12,62.43-43.77,18.52-20.65,24.92-42.74,66.28-39.68-35.47-14.3-54.32-5.86-97.26,26.19-15.15,11.31-31.39,17.74-48.52,25.74-22.79,10.64-48.66,13.74-70.89,25.5-41,21.69-62.58,68.6-100.74,94.98-34.29,23.7-80.66,29.94-107.79,61.58-21.05,24.55-26.25,60.04-48.46,83.55-15.62,16.53-35.29,28.29-51.98,43.6-15.21,13.96-30.89,27.11-46.87,39.92h84.31c8.61-7.1,17.07-14.4,25.66-21.36,12.82-10.38,19.4-27.16,28.47-40.81Z" fill="#1d1d1d"/>
        <path d="M498,149c67-18,89.02-73.97,133.61-92.94,33.15-14.1,68.96-22.31,99.96-40.65,7.4-4.38,14.54-9.57,21.09-15.41h-51.24c-27.51,8.54-57.53,11.18-86.2,12.77,2.19-4.47,4.41-8.7,6.66-12.77h-50.94c-20.89,29.77-34.43,65.64-46.49,99.75-6.55,18.52-12.11,34.9-26.46,49.25Z" fill="#1d1d1d"/>
        <path d="M786.24,1128.73c-18.88,39.98-49.81,60.41-84.82,71.27h51.24c20.89-18.62,35.73-43.94,33.58-71.27Z" fill="#1d1d1d"/>
        <path d="M747.69,1024.06c-38,24.91-83.57,74.63-159.85,155.14-6.14,6.48-11.73,13.45-16.89,20.8h50.94c25.53-46.09,55.01-68.27,85.8-112.38,24.32-34.84,19.5-28.5,40-63.56Z" fill="#1d1d1d"/>
        <path d="M116.43,305.35c18.48-.68,60.62-13.44,76.22-21.45,95.64-49.08,180.53-176.22,247.85-183.9-30.05-14.02-72.53,8.61-98.74,22.1-34.55,17.79-62.31,42.71-93.26,66.04-30.88,23.3-48.01,43.1-81.17,63.61-10.94,6.76-34.31,19.81-49.86,22.55,31.03-18.3,43.03-57.3,48.19-103.97,4.48-40.44,29.67-92.02,58.09-112.34-49.09,10.32-76.89,60.71-101.46,116.93-9.68,22.15-18.19,40.73-31.3,61.32-13.13,20.63-34.16,48.48-60.89,48.94,26.65,18.46,52.4,21.4,86.32,20.16Z" fill="#1d1d1d"/>
      </g>
    </pattern>
  </defs>
  <g id="Pattern">
    <rect width="2974.9" height="4597.01" fill="url(#New_Pattern_10)" opacity=".06"/>
  </g>
</svg>